<svg id="Camada_1" data-name="Camada 1" xmlns="http://www.w3.org/2000/svg" xmlns:xlink="http://www.w3.org/1999/xlink" viewBox="0 0 60 60"><defs><style>.cls-1{fill:#165c7d;}.cls-2{fill:#fff;}.cls-3{fill:url(#linear-gradient);}.cls-4{fill:url(#linear-gradient-2);}.cls-5{fill:#856d20;}.cls-6{fill:url(#linear-gradient-3);}.cls-7{fill:#007e8f;}.cls-8{fill:#326c39;}</style><linearGradient id="linear-gradient" x1="19.32" y1="42.36" x2="51.11" y2="42.36" gradientUnits="userSpaceOnUse"><stop offset="0" stop-color="#2fa5d3"/><stop offset="0.39" stop-color="#2fa3d0"/><stop offset="0.62" stop-color="#2d9dc8"/><stop offset="0.81" stop-color="#2b92ba"/><stop offset="0.98" stop-color="#2883a6"/><stop offset="1" stop-color="#2881a3"/></linearGradient><linearGradient id="linear-gradient-2" x1="24.08" y1="19.97" x2="52.39" y2="19.97" gradientUnits="userSpaceOnUse"><stop offset="0" stop-color="#e2a419"/><stop offset="0.37" stop-color="#dfa219"/><stop offset="0.6" stop-color="#d79d18"/><stop offset="0.78" stop-color="#c99317"/><stop offset="0.95" stop-color="#b58616"/><stop offset="1" stop-color="#ac8015"/></linearGradient><linearGradient id="linear-gradient-3" x1="7.61" y1="28.29" x2="24.08" y2="28.29" gradientUnits="userSpaceOnUse"><stop offset="0" stop-color="#5ba24f"/><stop offset="0.43" stop-color="#5a9f4e"/><stop offset="0.69" stop-color="#55974a"/><stop offset="0.91" stop-color="#4e8943"/><stop offset="1" stop-color="#49803f"/></linearGradient></defs><rect class="cls-1" width="60" height="60" rx="8.39"/><circle class="cls-1" cx="30" cy="30" r="18.93"/><path class="cls-2" d="M41.1,32.69l-4.33-10.6c-.42-1-.74-1.68-1.39-1.68s-1,.74-1.36,1.68L31.39,28.2l-2.6-6.11c-.39-.94-.7-1.68-1.36-1.68s-1,.7-1.4,1.7L21.71,32.69a2.16,2.16,0,0,0,.15,2.05,2.18,2.18,0,0,0,1.85.89h1.91V38a1.58,1.58,0,0,0,1.57,1.57h.55A1.57,1.57,0,0,0,29.31,38V35.63H33.5V38a1.57,1.57,0,0,0,1.57,1.57h.54A1.57,1.57,0,0,0,37.18,38V35.63h1.9A2.19,2.19,0,0,0,41,34.74,2.16,2.16,0,0,0,41.1,32.69ZM29.57,34.45H28.13V38a.4.4,0,0,1-.4.4h-.55a.4.4,0,0,1-.39-.4V34.45H23.71a1,1,0,0,1-.89-.37,1,1,0,0,1,0-.95l4.31-10.57.31-.67c.08.17.18.39.29.66l3,7.15-1.16,3A2.24,2.24,0,0,0,29.57,34.45Zm2.55-.39a.92.92,0,0,1-.71.38,1,1,0,0,1-.72-.38,1.06,1.06,0,0,1,0-.94l.71-1.83.74,1.83A1.06,1.06,0,0,1,32.12,34.06Zm7.86,0a1,1,0,0,1-.89.37H36V38a.4.4,0,0,1-.4.4h-.54a.4.4,0,0,1-.4-.4V34.45H33.24a2.24,2.24,0,0,0,0-1.76l-1.2-3,3.08-7.15c.11-.27.21-.49.29-.66.12.25.25.53.3.66L40,33.12A1,1,0,0,1,40,34.08Z"/><path class="cls-3" d="M43.41,40.76A16.35,16.35,0,0,1,31.4,46a14.58,14.58,0,0,1-1.49-.07,17.75,17.75,0,0,1-10.59-.45,17.73,17.73,0,0,0,31.79-10.8A18.15,18.15,0,0,0,51,32.33,17.84,17.84,0,0,1,43.41,40.76Z"/><path class="cls-4" d="M34.16,13.4a16.46,16.46,0,0,1,12,9,17.71,17.71,0,0,1,4.83,10A17.74,17.74,0,0,0,24.08,11.11c.42,0,.84,0,1.26,0A17.68,17.68,0,0,1,34.16,13.4Z"/><path class="cls-5" d="M47.81,29.58a16.35,16.35,0,0,1-4.4,11.18A17.84,17.84,0,0,0,51,32.33a17.71,17.71,0,0,0-4.83-10A16.25,16.25,0,0,1,47.81,29.58Z"/><path class="cls-6" d="M15.65,34.22A16.41,16.41,0,0,1,17.5,20.84a17.8,17.8,0,0,1,6.58-9.73,17.73,17.73,0,0,0-4.76,34.36,17.61,17.61,0,0,1-3.68-10.8C15.64,34.52,15.65,34.37,15.65,34.22Z"/><path class="cls-7" d="M29.91,45.92a16.42,16.42,0,0,1-14.26-11.7c0,.15,0,.3,0,.45a17.61,17.61,0,0,0,3.68,10.8,17.75,17.75,0,0,0,10.59.45Z"/><path class="cls-8" d="M17.5,20.84a16.4,16.4,0,0,1,13.9-7.67,16.76,16.76,0,0,1,2.76.23,17.68,17.68,0,0,0-8.82-2.34c-.42,0-.84,0-1.26,0A17.8,17.8,0,0,0,17.5,20.84Z"/></svg>